0
SECTION
2
HEADER
9
$INSUNITS
70
4
9
$ACADVER
1
AC1014
9
$HANDSEED
5
FFFF
0
ENDSEC
0
SECTION
2
TABLES
0
TABLE
2
VPORT
5
8
100
AcDbSymbolTable
0
ENDTAB
0
TABLE
2
LTYPE
5
5
100
AcDbSymbolTable
0
LTYPE
5
14
100
AcDbSymbolTableRecord
100
AcDbLinetypeTableRecord
2
BYBLOCK
70
0
0
LTYPE
5
15
100
AcDbSymbolTableRecord
100
AcDbLinetypeTableRecord
2
BYLAYER
70
0
0
ENDTAB
0
TABLE
2
LAYER
5
2
100
AcDbSymbolTable
70
2
0
LAYER
5
50
100
AcDbSymbolTableRecord
100
AcDbLayerTableRecord
2
0
70
0
6
CONTINUOUS
0
ENDTAB
0
TABLE
2
STYLE
5
3
100
AcDbSymbolTable
70
1
0
STYLE
5
11
100
AcDbSymbolTableRecord
100
AcDbTextStyleTableRecord
2
STANDARD
70
0
0
ENDTAB
0
TABLE
2
VIEW
5
6
100
AcDbSymbolTable
70
0
0
ENDTAB
0
TABLE
2
UCS
5
7
100
AcDbSymbolTable
70
0
0
ENDTAB
0
TABLE
2
APPID
5
9
100
AcDbSymbolTable
70
2
0
APPID
5
12
100
AcDbSymbolTableRecord
100
AcDbRegAppTableRecord
2
ACAD
70
0
0
ENDTAB
0
TABLE
2
DIMSTYLE
5
A
100
AcDbSymbolTable
70
1
0
ENDTAB
0
TABLE
2
BLOCK_RECORD
5
1
100
AcDbSymbolTable
70
1
0
BLOCK_RECORD
5
1F
100
AcDbSymbolTableRecord
100
AcDbBlockTableRecord
2
*MODEL_SPACE
0
BLOCK_RECORD
5
1B
100
AcDbSymbolTableRecord
100
AcDbBlockTableRecord
2
*PAPER_SPACE
0
ENDTAB
0
ENDSEC
0
SECTION
2
BLOCKS
0
BLOCK
5
20
100
AcDbEntity
100
AcDbBlockBegin
2
*MODEL_SPACE
0
ENDBLK
5
21
100
AcDbEntity
100
AcDbBlockEnd
0
BLOCK
5
1C
100
AcDbEntity
100
AcDbBlockBegin
2
*PAPER_SPACE
0
ENDBLK
5
1D
100
AcDbEntity
100
AcDbBlockEnd
0
ENDSEC
0
SECTION
2
ENTITIES
0
LWPOLYLINE
5
100
100
AcDbEntity
8
0
100
AcDbPolyline
90
36
70
1
43
0.0
10
17.500000000014509
20
107.49999999999999
10
17.500000000014509
20
103.49999999999997
10
20.500000000014516
20
103.49999999999974
10
20.500000000014435
20
97.499999999999744
10
5.5000000000144356
20
97.499999999999716
10
5.5000000000144622
20
103.49999999999972
10
8.5000000000144595
20
103.49999999999991
10
8.5000000000144169
20
107.49999999999991
10
-78.500000000014509
20
107.49999999999979
10
-78.500000000014552
20
103.49999999999979
10
-75.500000000014538
20
103.4999999999996
10
-75.500000000014481
20
97.499999999999602
10
-90.500000000014481
20
97.499999999999588
10
-90.500000000014595
20
103.49999999999959
10
-87.50000000001458
20
103.49999999999983
10
-87.50000000001458
20
107.49999999999984
10
-140.00000000001458
20
107.49999999999966
10
-140
20
80
10
-87.5
20
80
10
-87.5
20
76
10
-90.5
20
76
10
-90.49999999999406
20
70
10
-75.49999999999406
20
69.999999999999915
10
-75.499999999994088
20
75.999999999999929
10
-78.499999999994088
20
75.999999999999929
10
-78.499999999994088
20
79.999999999999929
10
8.4999999999940723
20
79.999999999999929
10
8.4999999999940794
20
75.999999999999929
10
5.4999999999940758
20
75.999999999999929
10
5.4999999999940519
20
69.999999999999915
10
20.499999999994053
20
70
10
20.5
20
76
10
17.499999999999996
20
76
10
17.5
20
80
10
70
20
79.999999999999986
10
70.000000000014509
20
107.49999999999999
0
LWPOLYLINE
5
101
100
AcDbEntity
8
0
100
AcDbPolyline
90
4
70
1
43
0.0
10
-126.00000000000001
20
93.999999999999943
10
-126.00000000000001
20
83.499999999999943
10
-136.50000000000003
20
83.499999999999943
10
-136.50000000000003
20
93.999999999999943
0
LWPOLYLINE
5
102
100
AcDbEntity
8
0
100
AcDbPolyline
90
4
70
1
43
0.0
10
-112.00000000000001
20
93.999999999999943
10
-112.00000000000001
20
83.499999999999943
10
-122.50000000000001
20
83.499999999999943
10
-122.50000000000001
20
93.999999999999943
0
LWPOLYLINE
5
103
100
AcDbEntity
8
0
100
AcDbPolyline
90
4
70
1
43
0.0
10
-98
20
93.999999999999943
10
-98
20
83.499999999999943
10
-108.50000000000001
20
83.499999999999943
10
-108.50000000000001
20
93.999999999999943
0
LWPOLYLINE
5
104
100
AcDbEntity
8
0
100
AcDbPolyline
90
4
70
1
43
0.0
10
-84
20
93.999999999999943
10
-84
20
83.499999999999943
10
-94.500000000000014
20
83.499999999999943
10
-94.500000000000014
20
93.999999999999943
0
LWPOLYLINE
5
105
100
AcDbEntity
8
0
100
AcDbPolyline
90
4
70
1
43
0.0
10
-70.000000000000014
20
93.999999999999943
10
-70.000000000000014
20
83.499999999999943
10
-80.5
20
83.499999999999943
10
-80.5
20
93.999999999999943
0
LWPOLYLINE
5
106
100
AcDbEntity
8
0
100
AcDbPolyline
90
4
70
1
43
0.0
10
-56.000000000000007
20
93.999999999999943
10
-56.000000000000007
20
83.499999999999943
10
-66.5
20
83.499999999999943
10
-66.5
20
93.999999999999943
0
LWPOLYLINE
5
107
100
AcDbEntity
8
0
100
AcDbPolyline
90
4
70
1
43
0.0
10
-42
20
93.999999999999943
10
-42
20
83.499999999999943
10
-52.5
20
83.499999999999943
10
-52.5
20
93.999999999999943
0
LWPOLYLINE
5
108
100
AcDbEntity
8
0
100
AcDbPolyline
90
4
70
1
43
0.0
10
-28.000000000000004
20
93.999999999999943
10
-28.000000000000004
20
83.499999999999943
10
-38.500000000000007
20
83.499999999999943
10
-38.500000000000007
20
93.999999999999943
0
LWPOLYLINE
5
109
100
AcDbEntity
8
0
100
AcDbPolyline
90
4
70
1
43
0.0
10
-14.000000000000002
20
93.999999999999943
10
-14.000000000000002
20
83.499999999999943
10
-24.5
20
83.499999999999943
10
-24.5
20
93.999999999999943
0
LWPOLYLINE
5
110
100
AcDbEntity
8
0
100
AcDbPolyline
90
4
70
1
43
0.0
10
0
20
93.999999999999943
10
0
20
83.499999999999943
10
-10.5
20
83.499999999999943
10
-10.5
20
93.999999999999943
0
ENDSEC
0
SECTION
2
OBJECTS
0
DICTIONARY
5
C
100
AcDbDictionary
3
ACAD_GROUP
350
D
3
ACAD_MLINESTYLE
350
17
0
DICTIONARY
5
D
100
AcDbDictionary
0
DICTIONARY
5
1A
330
C
100
AcDbDictionary
0
DICTIONARY
5
17
100
AcDbDictionary
0
ENDSEC
0
EOF
